HIERARCHY
ROOT Hips
{
  OFFSET -32.5998 29.0326 120.673
  CHANNELS 6 Xposition Yposition Zposition Zrotation Xrotation Yrotation
  JOINT LeftUpLeg
  {
    OFFSET 8.64259 1.95398 -2.38835
    CHANNELS 3 Zrotation Xrotation Yrotation
    JOINT LeftLeg
    {
      OFFSET 43.7702 0 0
      CHANNELS 3 Zrotation Xrotation Yrotation
      JOINT LeftFoot
      {
        OFFSET 40.6238 0 0
        CHANNELS 3 Zrotation Xrotation Yrotation
        JOINT LeftToeBase
        {
          OFFSET 12.7242 0 0
          CHANNELS 3 Zrotation Xrotation Yrotation
          End Site
          {
            OFFSET 0 0 0
          }
        }
      }
    }
  }
  JOINT RightUpLeg
  {
    OFFSET -8.2249 1.95398 -2.59336
    CHANNELS 3 Zrotation Xrotation Yrotation
    JOINT RightLeg
    {
      OFFSET 43.5653 0 0
      CHANNELS 3 Zrotation Xrotation Yrotation
      JOINT RightFoot
      {
        OFFSET 40.6238 0 0
        CHANNELS 3 Zrotation Xrotation Yrotation
        JOINT RightToeBase
        {
          OFFSET 12.7242 0 0
          CHANNELS 3 Zrotation Xrotation Yrotation
          End Site
          {
            OFFSET 0 0 0
          }
        }
      }
    }
  }
  JOINT Spine
  {
    OFFSET 0.165834 0.87714 6.61349
    CHANNELS 3 Zrotation Xrotation Yrotation
    JOINT Spine1
    {
      OFFSET 7.38963 1.71661e-005 0
      CHANNELS 3 Zrotation Xrotation Yrotation
      JOINT Spine2
      {
        OFFSET 11.9445 1.14441e-005 0
        CHANNELS 3 Zrotation Xrotation Yrotation
        JOINT Spine3
        {
          OFFSET 14.7254 4.19617e-005 0
          CHANNELS 3 Zrotation Xrotation Yrotation
          JOINT Spine4
          {
            OFFSET 10.9679 0 0
            CHANNELS 3 Zrotation Xrotation Yrotation
            JOINT RightShoulder
            {
              OFFSET 2.46616 -1.6653 3.69651
              CHANNELS 3 Zrotation Xrotation Yrotation
              JOINT RightArm
              {
                OFFSET 13.0012 0 0
                CHANNELS 3 Zrotation Xrotation Yrotation
                JOINT RightForeArm
                {
                  OFFSET 28.7848 1.62311e-005 0
                  CHANNELS 3 Zrotation Xrotation Yrotation
                  JOINT RightHand
                  {
                    OFFSET 26.5688 1.62095e-005 0
                    CHANNELS 3 Zrotation Xrotation Yrotation
                    End Site
                    {
                      OFFSET 0 0 0
                    }
                  }
                }
              }
            }
            JOINT LeftShoulder
            {
              OFFSET 2.38034 -1.29275 -3.7523
              CHANNELS 3 Zrotation Xrotation Yrotation
              JOINT LeftArm
              {
                OFFSET 16.3182 6.07031e-005 0
                CHANNELS 3 Zrotation Xrotation Yrotation
                JOINT LeftForeArm
                {
                  OFFSET 27.0901 0 0
                  CHANNELS 3 Zrotation Xrotation Yrotation
                  JOINT LeftHand
                  {
                    OFFSET 24.5451 1.51738e-005 0
                    CHANNELS 3 Zrotation Xrotation Yrotation
                    End Site
                    {
                      OFFSET 0 0 0
                    }
                  }
                }
              }
            }
            JOINT Neck
            {
              OFFSET 5.0226 -0.0266342 0
              CHANNELS 3 Zrotation Xrotation Yrotation
              JOINT Head
              {
                OFFSET 6.69364 2.86102e-005 0
                CHANNELS 3 Zrotation Xrotation Yrotation
                End Site
                {
                  OFFSET 0 0 0
                }
              }
            }
          }
        }
      }
    }
  }
}
MOTION
Frames:	18
Frame Time:	0.0416667
24.0738 97.2279 -42.6658 -130.259 -76.1823 -134.371 -174.28 16.1162 81.8935 -27.3794 -0.897413 -4.05169 65.8072 1.75104 -0.809448 4.38394 -14.929 5.3724 166.543 -14.6134 77.986 -39.9276 -29.0863 -6.07833 63.566 -2.16264 -1.77795 40.9848 -5.7805 3.45804 1.41695 7.86024 -89.9202 11.1579 2.85735 -0.120173 -0.509963 2.84929 -0.245926 -23.0692 2.76126 0.744802 -3.05654 2.76125 0.744802 89.3898 -26.8126 -109.304 38.7965 -13.587 -12.4977 -20.1715 -17.4854 -32.7953 -8.14605 -0.0337626 -4.99508 -85.6674 -53.7114 85.7401 -31.3953 14.3309 9.9953 7.49943 -9.56209 -8.44485 -4.8947 -0.103369 -3.78678 -4.86924 1.35103 6.24578 -9.06275 0.872755 -2.70907 
25.2019 97.6964 -35.0306 -131.971 -75.0331 -138.178 -175.522 10.3619 78.1242 -28.4176 -2.80303 -3.97641 70.7681 4.62921 0.460654 5.49526 -14.1695 5.21578 172.077 -1.38925 77.2241 -63.3082 -27.5282 -9.07229 56.367 3.07221 1.33698 25.9354 0.618099 2.37451 1.15873 7.95236 -89.7059 10.9665 2.44306 0.352715 -0.702225 2.45622 0.244778 -23.2528 2.22407 1.07099 -3.2401 2.22407 1.07098 89.6898 -26.7324 -108.721 42.3562 -15.6905 -9.82639 -16.3058 -17.9264 -26.1077 -8.30971 -0.01421 -5.29738 -85.8258 -53.4606 85.4779 -23.9862 15.3651 -1.84938 7.96447 -8.44507 -10.868 -3.29441 -0.0905054 -4.21883 -6.24755 2.19722 8.07684 -8.15583 1.59303 -2.20491 
25.8397 98.3992 -29.3094 -141.305 -76.6272 -146.822 -176.437 5.22972 77.4068 -26.5418 -0.835838 -3.10949 73.2203 6.39003 0.4031 7.07015 -14.0653 6.33613 176.867 8.56199 81.1401 -66.7264 -19.7415 -8.06736 65.1203 -2.40762 -1.21891 27.2627 -0.0150948 2.67776 0.701103 8.01634 -89.841 10.8423 1.46944 0.177015 -0.827855 1.47581 0.112148 -23.3689 1.3483 0.610541 -3.35624 1.34829 0.61053 89.8406 -27.465 -108.094 43.0204 -16.2749 -5.90803 -14.0885 -18.0619 -22.5472 -8.36336 -0.0285832 -5.08996 -85.5826 -51.4885 85.5669 -17.4757 9.79044 -12.6261 10.7535 -3.8643 -19.7375 -1.5944 -0.0885695 -3.9808 -7.13483 3.30188 8.92388 -8.1934 2.62181 -0.164786 
25.9459 98.9005 -24.4702 -163.494 -79.7323 -167.319 -176.806 1.63715 78.7456 -25.0988 4.45554 -1.85523 75.1652 7.70029 0.645169 8.17315 -14.1372 7.35175 179.836 15.0894 85.6728 -52.6282 -14.5338 -7.09398 67.6633 -4.12975 -1.03423 26.6425 0.655612 1.17275 0.257757 8.05962 -90.1911 10.7564 0.425176 -0.418817 -0.914515 0.406329 -0.437129 -23.45 0.531389 -0.271671 -3.43737 0.531389 -0.271675 90.3334 -27.4244 -107.098 43.2194 -14.34 -0.594226 -14.2253 -17.9739 -22.6942 -8.30455 -0.0285257 -5.08018 -85.8447 -48.6735 84.7703 -15.0268 3.08555 -22.3822 14.0729 -0.0322413 -26.4482 -0.383371 -0.0873662 -4.09182 -7.09893 3.41725 8.88113 -7.28847 2.68033 1.28123 
26.067 98.8359 -19.3235 162.025 -80.4307 158.416 -176.402 -1.90326 79.8903 -24.1751 11.52 -1.58876 77.5212 9.50192 1.2267 6.36075 -14.1549 5.8853 -177.669 17.4214 86.9257 -33.8184 -24.0906 -7.63848 64.5445 -3.35048 -1.23379 28.5322 -0.293306 1.63668 -0.190473 8.06555 -90.2632 10.7415 -0.500603 -0.477205 -0.929453 -0.521118 -0.454725 -23.4643 -0.334038 -0.60559 -3.45166 -0.334044 -0.605604 90.6032 -27.6556 -106.45 43.8953 -13.6309 3.10803 -13.1894 -17.1078 -21.3859 -8.82452 -0.0106658 -5.32469 -85.9645 -46.1213 84.1927 -14.1596 -1.90518 -29.8539 15.7429 1.49667 -28.6198 3.74047 -0.0341102 -3.31361 -6.43794 3.32616 7.21017 -7.33688 2.64826 2.07101 
26.501 98.2455 -13.3901 135.191 -77.3897 131.345 -175.134 -6.33212 81.8888 -23.7534 19.2985 -2.00213 80.4747 11.9924 1.16714 7.38543 -14.0012 6.50492 -178.588 15.9504 86.5319 -16.5895 -44.0512 -6.07054 62.7628 -2.60192 0.806857 33.5042 -2.14589 0.182972 -0.550153 8.08964 -90.2672 10.6925 -1.21868 -0.419859 -0.977939 -1.23598 -0.365812 -23.5159 -1.03616 -0.766741 -3.50328 -1.03616 -0.766736 90.8403 -28.578 -105.611 44.4249 -13.6224 5.30698 -12.4871 -16.1252 -20.6507 -7.58554 0.0454328 -6.29485 -86.6483 -45.0481 82.9298 -15.4591 -3.31776 -32.9345 15.3934 0.642332 -30.293 2.82683 -0.0999199 -4.55375 -6.05472 2.65225 5.72935 -7.10923 2.06246 2.68735 
27.1425 97.3616 -6.59051 120.32 -71.9119 116.105 -174.15 -11.8058 84.6845 -22.5559 27.0136 -1.64196 83.3889 15.1534 0.853567 8.00702 -14.5681 7.82707 -178.063 15.0489 87.3744 -17.8745 -50.386 -8.32403 61.5566 -1.22964 1.81769 36.9212 -3.65634 0.190746 -0.911182 8.02644 -90.2305 10.8194 -1.92064 -0.28058 -0.850116 -1.93113 -0.195739 -23.395 -1.7475 -0.84501 -3.38232 -1.7475 -0.845008 91.0805 -29.7522 -104.701 44.8514 -12.6221 5.91857 -12.7662 -17.0748 -20.5962 -8.85579 -0.00847756 -5.30296 -87.2631 -45.3072 82.001 -17.4389 -0.5403 -30.5746 16.282 2.06526 -30.2647 3.11463 -0.0423112 -3.383 -5.92947 2.11659 3.97548 -7.86128 1.63087 3.29476 
28.3597 97.119 0.828776 112.022 -65.1302 108.746 -173.557 -16.6927 88.3936 -22.202 32.5454 0.989819 83.5113 15.9622 0.791819 11.1713 -13.3497 8.81732 -177.13 16.1489 88.9472 -30.6238 -46.037 -10.0277 60.4223 -0.48901 3.77225 33.6422 -1.49394 -3.30546 -1.00033 7.82018 -90.3497 11.2297 -2.15342 -0.483553 -0.439569 -2.17261 -0.388268 -22.9858 -1.90852 -1.10859 -2.97311 -1.90852 -1.10859 91.2365 -30.2213 -104.222 46.4345 -13.452 6.23032 -11.7208 -15.6084 -19.2284 -6.798 0.0456746 -6.38566 -85.8424 -46.0222 84.3695 -20.5517 10.8737 -26.3599 13.7505 1.9364 -21.8818 0.487915 -0.0800766 -4.43789 -6.52078 0.824931 2.63675 -8.32787 0.47627 3.00639 
29.9811 98.1795 7.4781 106.787 -55.6147 106.478 -173.093 -15.3663 93.8643 -31.5352 35.2157 5.59737 77.4535 12.4162 3.02366 18.4401 -8.3878 7.37432 179.614 10.7392 91.4696 -28.0881 -38.2144 -5.88173 63.6434 -2.32425 1.78523 30.7196 -1.3275 2.03654 -0.904874 7.7213 -90.7843 11.4178 -2.16652 -1.34326 -0.251953 -2.22353 -1.24658 -22.791 -1.66272 -1.93228 -2.77831 -1.66272 -1.93227 91.3918 -28.6395 -104.466 46.3652 -12.6277 5.07924 -11.9617 -16.7364 -19.4305 -10.7848 -0.11798 -4.07278 -86.6336 -47.0306 83.2934 -26.0053 21.8928 -19.4207 8.13735 -2.35986 -6.39065 -1.82801 -0.0914493 -4.56322 -6.4632 -1.02379 0.711733 -8.48876 -1.22195 3.11228 
31.2833 98.8214 12.173 102.302 -42.069 103.531 -174.207 -5.14306 98.4533 -49.5898 29.3505 7.30191 68.9096 5.92596 2.10635 16.3779 -7.15525 3.30473 175.492 5.01982 92.438 -23.5814 -29.0423 -1.42649 66.7108 -4.22618 -0.245036 28.5173 -1.13339 5.06599 -0.726523 7.75109 -90.9184 11.3563 -1.87387 -1.64212 -0.314166 -1.94431 -1.55807 -22.847 -1.29382 -2.12926 -2.83435 -1.29382 -2.12927 91.4841 -29.4868 -103.981 42.9822 -13.6574 3.39509 -13.6785 -17.9933 -22.2341 -9.24726 -0.0872595 -4.30082 -86.8985 -46.1427 82.7266 -30.2181 28.3286 -12.4747 4.42453 -5.4375 0.593941 -4.09592 -0.039853 -4.11219 -4.07541 -3.69332 -3.61315 -7.79981 -3.36614 2.09644 
32.5973 99.0303 15.2199 99.3879 -25.5752 101.28 -176.079 9.10906 99.4923 -63.1529 15.6172 6.71761 64.9352 2.23269 1.26062 8.67527 -10.274 2.11138 172.933 -0.43155 93.265 -19.8748 -15.2885 2.20067 67.7667 -3.89713 3.24252 31.0404 -0.715737 -1.29589 -0.51567 7.99573 -91.0174 10.8663 -1.4968 -1.88154 -0.805099 -1.57812 -1.81388 -23.332 -0.862284 -2.24424 -3.31938 -0.862289 -2.24425 90.994 -29.6155 -104.921 37.2085 -13.576 2.38647 -13.3486 -16.4769 -22.7183 -11.3183 -0.17955 -3.44737 -87.2995 -46.5765 82.175 -28.1476 22.2644 -6.02196 6.69263 -5.59366 -2.84246 -4.09376 -0.098737 -4.51645 -0.790385 -6.73714 -8.24692 -4.75528 -5.61929 0.997404 
34.5672 98.9065 17.0634 97.4505 -8.80559 99.1699 -176.109 18.2315 96.5161 -62.3657 18.2232 4.30172 67.1966 3.86175 0.776757 8.72993 -11.0943 3.36913 171.64 -3.7542 92.6536 -18.95 -0.811634 3.4319 70.7119 -3.75118 4.95671 31.6535 -0.493578 -3.62657 -0.170667 8.04687 -90.8653 10.7713 -0.739001 -1.65174 -0.900472 -0.810977 -1.61763 -23.4274 -0.208522 -1.79743 -3.4147 -0.208511 -1.79744 90.8709 -28.5247 -105.569 32.2118 -15.4799 3.75278 -11.0783 -17.362 -18.6428 -8.78567 -0.0539172 -4.86479 -87.2926 -46.0338 82.0863 -23.4224 18.2877 -6.3011 7.6294 -7.76697 -9.94151 -1.2674 -0.079658 -3.61963 0.483968 -8.42413 -10.2654 -3.74658 -6.85516 -1.65932 
37.3455 98.6528 17.502 95.2364 3.74897 92.9022 -175.613 22.9004 89.7495 -50.5766 17.0045 1.03137 70.5889 5.98567 -0.283003 10.7522 -9.45412 2.46799 170.569 -5.34447 91.3051 -18.4122 11.7125 3.96618 73.5046 -4.11254 2.67809 30.2864 -0.723304 0.197523 -0.0180992 7.86479 -90.5232 11.1419 -0.278966 -1.0141 -0.529393 -0.323324 -1.00084 -23.0614 0.0386751 -1.05105 -3.04873 0.0386997 -1.05105 91.2741 -27.2026 -105.236 30.0473 -14.4604 5.16721 -9.24862 -18.2477 -14.2979 -9.26631 -0.0781025 -4.42084 -87.1292 -46.0719 82.3505 -19.9214 18.1026 -7.31991 8.34188 -6.70225 -16.3066 -1.02033 -0.0873871 -4.10385 1.02263 -8.44161 -11.0346 -4.10688 -6.70632 -1.33063 
40.835 98.7828 17.0462 94.4666 12.9398 88.317 -176.298 22.7607 83.307 -32.7486 9.31611 -1.34664 67.4813 3.90544 -0.737559 12.6717 -9.8846 4.75337 170.503 -8.8284 89.8934 -14.4012 21.9042 3.08287 73.4656 -4.33615 2.01488 31.8382 -1.5928 1.00804 0.246564 7.84828 -90.14 11.1783 0.425531 -0.321809 -0.492628 0.410976 -0.340236 -23.028 0.502611 -0.179041 -3.01533 0.502596 -0.17904 91.8938 -25.3743 -104.62 29.3208 -10.64 4.79131 -10.3741 -13.8919 -15.701 -10.8647 -0.169416 -3.49763 -87.027 -47.0569 82.6856 -20.6136 16.2186 -7.74465 7.79364 -8.90576 -17.6679 -1.00224 -0.0911475 -4.58527 2.66087 -7.63461 -8.58039 -4.4898 -6.11099 -3.28405 
45.3893 98.3625 15.9515 93.5119 15.7052 86.4224 -177.375 21.5263 80.3428 -18.468 3.15013 -2.31566 64.4825 2.1734 -1.24357 16.251 -9.22308 6.78056 169.904 -11.9424 88.334 -11.692 24.961 2.30562 73.1386 -4.57802 3.10235 33.0228 -1.61592 -1.38143 0.793403 7.74579 -89.8196 11.3814 1.66299 0.193362 -0.288449 1.66989 0.119963 -22.831 1.52798 0.684333 -2.81837 1.52799 0.684332 91.4133 -24.8535 -105.855 28.6229 -9.41442 1.26454 -12.2823 -13.0009 -19.6041 -10.8832 -0.145184 -3.78861 -86.9568 -49.1934 83.1578 -23.5702 14.7207 -2.40027 7.79698 -9.3131 -18.8412 0.0505951 -0.0804228 -3.89644 4.05437 -5.83846 -5.94691 -4.25758 -4.68787 -3.73747 
51.4739 97.3088 14.2767 93.3587 15.7853 85.4319 -177.302 21.8826 79.1297 -20.3768 -3.38262 -2.50036 66.3863 2.87655 0.533842 12.7146 -9.60009 4.31038 168.782 -16.3997 86.7248 -9.52925 24.4013 1.74261 72.6404 -5.94794 2.07156 35.401 -2.43418 -2.97949 1.20452 7.69438 -89.6008 11.4803 2.58306 0.53237 -0.188159 2.60397 0.418093 -22.7395 2.30359 1.28443 -2.72687 2.30359 1.28443 90.3555 -25.6884 -107.77 27.7598 -9.58611 -4.58171 -16.1816 -14.7885 -27.0016 -9.52714 -0.16842 -3.25616 -86.1886 -51.4093 84.6555 -28.2813 13.9372 4.92317 7.77113 -8.72549 -14.9109 -2.85412 -0.107923 -1.50451 6.23224 -3.53807 -3.40364 -4.72837 -2.77545 -3.80682 
59.3392 97.3318 11.4405 93.5892 16.3691 84.2673 -176.681 20.0847 77.6442 -25.9203 -2.38994 -3.12224 66.6801 1.97282 1.66705 5.79028 -12.8777 3.65247 164.342 -19.1484 81.5262 -11.5914 18.6335 2.89547 64.6495 -3.28506 0.308089 45.0993 -6.91577 -3.31562 1.44306 7.55528 -89.2615 11.7494 3.21691 1.13292 0.0820727 3.26366 0.990104 -22.4736 2.72767 2.04783 -2.46099 2.72766 2.04783 89.7467 -27.2404 -108.383 30.5105 -9.54644 -8.03904 -22.9536 -16.4114 -38.4075 -9.74498 -0.209133 -2.81443 -85.8623 -51.6692 85.1775 -33.9249 15.6407 10.2648 7.25154 -11.1786 -4.04084 -3.52736 -0.102101 -3.21982 6.45517 -2.38952 -3.98748 -4.89036 -1.52036 -3.633 
66.7429 97.7373 7.80762 96.0582 19.1252 81.3454 -176.399 12.6637 75.3652 -27.642 0.299685 -4.30726 71.8544 5.62445 0.81176 8.95614 -12.3884 5.47345 158.098 -11.243 73.0751 -33.1906 6.33616 2.85147 60.041 0.532361 -0.00255654 39.4994 -4.95724 1.24679 1.51122 7.67411 -88.9244 11.497 3.50936 1.78386 -0.17021 3.58448 1.62755 -22.722 2.8111 2.75635 -2.7093 2.81114 2.75636 90.0278 -27.5063 -107.694 36.244 -11.8362 -8.87372 -25.1507 -15.8703 -42.3315 -8.57262 -0.165892 -3.11365 -86.0332 -52.6847 85.0676 -34.8354 15.755 13.727 6.83765 -11.3489 -4.7802 -4.68098 -0.126784 -2.39187 6.05803 -1.98502 -3.53975 -5.89371 -1.18024 -4.16531 
